# xmcd
#
# Track frame offsets:
#	150
#	22298
#	40172
#	62836
#	86220
#
# Disc length: 1419 seconds
# Revision: 0
# Processed by: cddbd v1.5.2PL0 Copyright (c) Steve Scherf et al.
# Submitted via: dBpowerAMP V12.0
#
DISCID=42058905
DTITLE=Brian James And The Revival - Brian James And The Revival
DYEAR=2014
DGENRE=Blues
TTITLE0=Alabama
TTITLE1=Pain And Misery
TTITLE2=Cold Water
TTITLE3=Devil Cut You Down
TTITLE4=Go Ahead Woman
EXTD=
EXTT0=
EXTT1=
EXTT2=
EXTT3=
EXTT4=
PLAYORDER=
